<svg width="236" height="108" viewBox="0 0 236 108" fill="none" xmlns="http://www.w3.org/2000/svg">
<g clip-path="url(#clip0_215_114)">
<path d="M0.265766 94.1371H236V93.6905H0.265766C0.118989 93.6905 0 93.7905 0 93.9138C0 94.0371 0.118986 94.1371 0.265766 94.1371Z" fill="#3F3D56"/>
<path d="M107.901 97.9336C109.23 103.293 116.804 96.7053 116.804 96.7053L125.84 95.812C125.84 95.812 131.554 95.9237 135.275 98.3802C138.996 100.837 141.52 97.5986 141.52 97.5986C145.712 98.7727 150.848 98.768 155.296 98.392C161.705 97.8501 166.842 93.6932 167.723 88.3313C172.692 58.0845 145.374 43.2202 145.374 43.2202L137.401 25.1313C137.401 25.1313 139.926 19.8833 140.723 15.1935C141.52 10.5038 135.673 6.03742 128.498 1.57102C125.358 -0.383029 121.761 -0.24258 118.708 0.533695C115.282 1.40452 112.294 3.19529 110.086 5.562C108.257 7.52274 105.12 10.2997 101.671 10.7807C100.478 10.946 99.3007 11.3435 98.2005 12.0671C97.063 12.8152 96.5607 14.0635 96.5448 15.6156C96.4597 22.3956 103.122 30.558 108.964 31.8309C116.14 33.3941 112.286 48.2449 112.286 48.2449C100.592 62.0907 108.831 77.4998 108.831 77.4998L106.705 90.0057C106.705 90.0057 106.572 92.5739 107.901 97.9336Z" fill="#3F3D56"/>
<path d="M146.968 69.1253L144.045 99.7201C144.045 99.7201 148.032 108.206 134.477 107.76C120.923 107.313 128.896 89.8941 128.896 89.8941L133.149 67.1154" fill="#3F3D56"/>
<path d="M135.486 108C135.155 108 134.815 107.994 134.467 107.983C131.467 107.884 129.257 106.955 127.9 105.223C124.019 100.269 128.335 90.5047 128.638 89.8363L132.886 67.0807C132.909 66.9588 133.044 66.8768 133.19 66.8947C133.335 66.9139 133.434 67.0282 133.411 67.1501L129.159 89.9287C129.156 89.9442 129.151 89.9595 129.144 89.9743C129.098 90.0753 124.56 100.148 128.344 104.978C129.602 106.583 131.669 107.444 134.488 107.537C138.913 107.682 141.89 106.888 143.337 105.176C145.231 102.937 143.812 99.8331 143.798 99.8019C143.783 99.7703 143.777 99.7361 143.78 99.7023L146.703 69.1074C146.715 68.9846 146.841 68.895 146.99 68.9026C147.136 68.9127 147.245 69.0202 147.233 69.1432L144.315 99.6879C144.508 100.126 145.719 103.128 143.773 105.432C142.333 107.138 139.548 108 135.486 108Z" fill="#2F2E41"/>
<path d="M122.784 75.3783C122.784 75.3783 123.581 103.74 106.838 103.07C90.0946 102.4 105.243 93.4672 105.243 93.4672L106.705 90.0058" fill="#3F3D56"/>
<path d="M107.412 103.305C107.218 103.305 107.023 103.301 106.825 103.293C102.044 103.102 99.3433 102.202 98.7969 100.618C97.8125 97.7642 104.229 93.802 105.021 93.3259L106.455 89.9312C106.504 89.8147 106.655 89.7541 106.794 89.7953C106.932 89.8365 107.004 89.9641 106.955 90.0803L105.494 93.5418C105.475 93.5856 105.441 93.6234 105.396 93.65C105.326 93.6914 98.3856 97.8226 99.3075 100.494C99.7839 101.874 102.322 102.666 106.851 102.847C109.867 102.969 112.511 102.116 114.704 100.317C122.93 93.5691 122.523 75.5645 122.518 75.3835C122.515 75.2603 122.631 75.158 122.778 75.155C122.916 75.1552 123.046 75.2498 123.05 75.3731C123.071 76.1202 123.467 93.7518 115.076 100.636C112.916 102.408 110.34 103.305 107.412 103.305Z" fill="#2F2E41"/>
<path d="M96.5447 15.6156C98.4529 15.8077 101.44 15.7987 103.914 14.4119C106.564 12.9268 103.813 11.5422 101.671 10.7807C100.478 10.946 99.3007 11.3435 98.2005 12.0671C97.063 12.8152 96.5607 14.0635 96.5447 15.6156Z" fill="#2F2E41"/>
<path d="M127.381 11.6001C127.381 11.6001 122.744 1.59171 129.386 1.45166C136.028 1.31161 141.274 9.9847 141.274 9.9847C141.274 9.9847 157.945 35.5197 135.105 34.1426C112.264 32.7656 123.179 22.5723 123.179 22.5723C123.179 22.5723 128.388 17.1904 127.381 11.6001Z" fill="#2F2E41"/>
<path d="M152.826 86.3915C155.767 87.491 158.84 88.6131 162.057 88.5057C165.274 88.3984 168.659 86.6576 169.16 83.9854C169.419 82.606 168.906 81.126 169.535 79.8333C170.38 78.0939 173.108 77.4231 175.229 78.0192C177.349 78.6153 178.907 80.1523 180.024 81.78C182.114 84.8254 182.951 88.8224 180.711 91.791C178.768 94.3645 175.084 95.5274 171.657 96.5248C167.093 97.8534 161.996 99.172 157.573 97.5401C153.125 95.8987 150.702 91.1566 152.349 87.316" fill="#3F3D56"/>
<path d="M143.012 38.1702C143.012 38.1702 148.859 40.6267 145.936 43.3065C143.012 45.9864 124.94 53.5792 118.296 52.4626C111.652 51.346 110.057 47.9962 110.057 47.103C110.057 46.2097 110.559 35.404 112.685 35.8506C114.811 36.2973 128.129 46.433 143.012 38.1702Z" fill="#195891"/>
</g>
<defs>
<clipPath id="clip0_215_114">
<rect width="236" height="108" fill="white"/>
</clipPath>
</defs>
</svg>
